<svg xmlns="http://www.w3.org/2000/svg" xmlns:xlink="http://www.w3.org/1999/xlink" width="138" height="26" viewBox="0 0 138 26">
    <defs>
        <path id="a" d="M.038.005H21.37v25.981H.038z"/>
    </defs>
    <g fill="none" fill-rule="evenodd">
        <path fill="#2397D4" d="M.23 0l11.772 9.631L20.578.338A.202.202 0 0 0 20.43 0H.23zM.23 26l11.772-9.631 8.576 9.293a.202.202 0 0 1-.148.338H.23z"/>
        <path fill="#2F4A75" d="M.36.05L15.991 12.83a.221.221 0 0 1 0 .342L.359 25.949A.22.22 0 0 1 0 25.78V.22A.22.22 0 0 1 .36.05M59.937 17.876c-.1-1.593-1.48-2.802-3.07-2.802h-5.81v6.124h5.889c1.818 0 3.11-1.417 2.991-3.322m-8.88-12.908v5.324c0 .12.097.217.216.217h4.895c1.685 0 2.913-1.372 2.765-3.146-.123-1.47-1.408-2.57-2.88-2.57h-4.82a.176.176 0 0 0-.175.175m13.96 13.484c0 4.453-3.592 7.534-8.072 7.534H46.158a.211.211 0 0 1-.21-.21V.21c0-.114.092-.207.206-.207h10.014c4.37 0 7.887 2.97 7.887 7.312 0 2.227-.925 3.972-2.443 5.197 2.073 1.188 3.406 3.23 3.406 5.939M81.782 16.267l-3.286-9.815a.193.193 0 0 0-.366 0l-3.288 9.815a.193.193 0 0 0 .183.255H81.6c.132 0 .225-.13.183-.255m1.539 5.043H73.266a.193.193 0 0 0-.182.132l-1.467 4.413a.194.194 0 0 1-.183.132h-5.107a.193.193 0 0 1-.182-.258L75.082.134c.027-.078.1-.13.183-.13h6.058c.082 0 .155.052.182.13l8.974 25.595a.193.193 0 0 1-.182.258h-5.143a.193.193 0 0 1-.183-.132l-1.468-4.413a.192.192 0 0 0-.182-.132M113.195.214v25.563a.209.209 0 0 1-.208.21h-3.571a.207.207 0 0 1-.17-.09L98.197 10.1v15.677a.209.209 0 0 1-.208.21h-4.693a.209.209 0 0 1-.209-.21V.214c0-.116.093-.21.209-.21h3.57a.21.21 0 0 1 .172.09l11.046 15.76V.213c0-.116.094-.21.209-.21h4.693c.115 0 .208.094.208.21"/>
        <g transform="translate(116.21)">
            <mask id="b" fill="#fff">
                <use xlink:href="#a"/>
            </mask>
            <path fill="#2F4A75" d="M15.66 25.88l-4.787-8.043a.217.217 0 0 0-.372 0L5.713 25.88a.218.218 0 0 1-.186.106H.256a.217.217 0 0 1-.187-.328L7.73 12.772a.213.213 0 0 0 0-.221L.476.334A.218.218 0 0 1 .662.005h5.272c.077 0 .148.04.187.106L10.5 7.486c.084.141.29.141.373 0L15.252.11a.216.216 0 0 1 .187-.106h5.27c.17 0 .274.183.187.329l-7.254 12.18a.214.214 0 0 0 0 .222l7.699 12.922a.217.217 0 0 1-.186.328h-5.31a.218.218 0 0 1-.185-.106" mask="url(#b)"/>
        </g>
        <path fill="#2F4A75" d="M32.615 21.074a1.356 1.356 0 0 1-1.184-1.345v-4.27c0-.11.09-.199.2-.199h9.414a.2.2 0 0 0 .199-.2v-4.425a.2.2 0 0 0-.2-.2h-9.412a.2.2 0 0 1-.2-.201v-5.13c0-.11.089-.2.2-.2H41.97a.2.2 0 0 0 .2-.2V.204a.2.2 0 0 0-.2-.2H26.52a.2.2 0 0 0-.199.2V21.14a4.85 4.85 0 0 0 4.845 4.855h11.19v-4.921h-9.74z"/>
    </g>
</svg>
